<svg id="arasaka-banner" width="100%" viewBox="0 0 680 92" xmlns="http://www.w3.org/2000/svg">
  <defs>
    <linearGradient id="bg" x1="0%" y1="0%" x2="100%" y2="100%">
      <stop offset="0%" stop-color="#120708"/>
      <stop offset="55%" stop-color="#090405"/>
      <stop offset="100%" stop-color="#120a0b"/>
    </linearGradient>
    <linearGradient id="panel" x1="0%" y1="0%" x2="100%" y2="0%">
      <stop offset="0%" stop-color="#19090a" stop-opacity="0.95"/>
      <stop offset="50%" stop-color="#0d0607" stop-opacity="0.78"/>
      <stop offset="100%" stop-color="#19090a" stop-opacity="0.95"/>
    </linearGradient>
    <pattern id="grid" width="24" height="24" patternUnits="userSpaceOnUse">
      <path d="M24 0 L0 0 0 24" fill="none" stroke="#c5162f" stroke-width="0.4" opacity="0.11"/>
    </pattern>
    <pattern id="scanlines" width="680" height="4" patternUnits="userSpaceOnUse">
      <line x1="0" y1="0" x2="680" y2="0" stroke="#050304" stroke-width="1" opacity="0.32"/>
    </pattern>
    <clipPath id="glitch-top">
      <rect x="0" y="37" width="680" height="5"/>
    </clipPath>
    <clipPath id="glitch-mid">
      <rect x="0" y="50" width="680" height="3"/>
    </clipPath>
    <filter id="glow-red" x="-50%" y="-50%" width="200%" height="200%">
      <feGaussianBlur stdDeviation="2.5" result="blur"/>
      <feMerge>
        <feMergeNode in="blur"/>
        <feMergeNode in="blur"/>
        <feMergeNode in="SourceGraphic"/>
      </feMerge>
    </filter>
    <filter id="glow-soft" x="-50%" y="-50%" width="200%" height="200%">
      <feGaussianBlur stdDeviation="6" result="blur"/>
      <feMerge>
        <feMergeNode in="blur"/>
        <feMergeNode in="SourceGraphic"/>
      </feMerge>
    </filter>
  </defs>

  <rect width="680" height="92" rx="5" fill="url(#bg)"/>
  <rect width="680" height="92" rx="5" fill="url(#grid)"/>
  <rect x="17" y="10" width="646" height="72" rx="2" fill="url(#panel)" stroke="#401114" stroke-width="1"/>
  <rect x="17" y="10" width="646" height="72" rx="2" fill="url(#scanlines)" opacity="0.3"/>

  <g opacity="0.14" stroke-width="1">
    <line x1="48" y1="0" x2="48" y2="46" stroke="#ff344d"/>
    <line x1="96" y1="0" x2="96" y2="33" stroke="#c8a000"/>
    <line x1="144" y1="0" x2="144" y2="58" stroke="#ff344d"/>
    <line x1="218" y1="0" x2="218" y2="26" stroke="#8d1e28"/>
    <line x1="472" y1="0" x2="472" y2="37" stroke="#c8a000"/>
    <line x1="536" y1="0" x2="536" y2="52" stroke="#ff344d"/>
    <line x1="592" y1="0" x2="592" y2="30" stroke="#8d1e28"/>
    <line x1="634" y1="0" x2="634" y2="43" stroke="#ff344d"/>
  </g>

  <path d="M0,92 L0,78 L14,78 L14,73 L24,73 L24,76 L36,76 L36,69 L48,69 L48,73 L60,73 L60,65 L72,65 L72,70 L84,70 L84,61 L100,61 L100,67 L114,67 L114,58 L130,58 L130,65 L146,65 L146,54 L160,54 L160,61 L176,61 L176,52 L190,52 L190,59 L206,59 L206,50 L220,50 L220,57 L234,57 L234,48 L248,48 L248,55 L262,55 L262,46 L278,46 L278,53 L294,53 L294,45 L310,45 L310,52 L326,52 L326,44 L344,44 L344,53 L360,53 L360,46 L378,46 L378,54 L394,54 L394,47 L410,47 L410,58 L428,58 L428,49 L444,49 L444,60 L460,60 L460,53 L476,53 L476,64 L492,64 L492,57 L508,57 L508,68 L524,68 L524,61 L540,61 L540,72 L556,72 L556,65 L570,65 L570,75 L586,75 L586,69 L602,69 L602,78 L618,78 L618,73 L634,73 L634,82 L650,82 L650,77 L680,77 L680,92 Z" fill="#2a0e12" opacity="0.28"/>

  <g opacity="0.5">
    <rect x="84" y="64" width="2" height="2" fill="#ff4058"/>
    <rect x="144" y="59" width="2" height="2" fill="#d0aa1c"/>
    <rect x="206" y="54" width="2" height="2" fill="#ff4058"/>
    <rect x="278" y="50" width="2" height="2" fill="#e4b724"/>
    <rect x="344" y="48" width="2" height="2" fill="#ff4058"/>
    <rect x="410" y="54" width="2" height="2" fill="#d0aa1c"/>
    <rect x="476" y="61" width="2" height="2" fill="#ff4058"/>
    <rect x="540" y="67" width="2" height="2" fill="#d0aa1c"/>
    <rect x="606" y="76" width="2" height="2" fill="#ff4058"/>
  </g>

  <g fill="none" stroke-width="1">
    <path d="M0,28 L18,28 L34,18 L82,18" stroke="#c5162f" opacity="0.28"/>
    <path d="M0,68 L22,68 L34,77 L76,77" stroke="#c8a000" opacity="0.18"/>
    <path d="M680,28 L662,28 L646,18 L598,18" stroke="#c5162f" opacity="0.28"/>
    <path d="M680,68 L658,68 L646,77 L604,77" stroke="#c8a000" opacity="0.18"/>
    <circle cx="82" cy="18" r="2.2" fill="#c5162f" opacity="0.45"/>
    <circle cx="76" cy="77" r="2" fill="#c8a000" opacity="0.35"/>
    <circle cx="598" cy="18" r="2.2" fill="#c5162f" opacity="0.45"/>
    <circle cx="604" cy="77" r="2" fill="#c8a000" opacity="0.35"/>
  </g>

  <rect x="17" y="31" width="646" height="1" fill="#351012" opacity="0.95"/>
  <rect x="17" y="63" width="646" height="1" fill="#351012" opacity="0.95"/>

  <g filter="url(#glow-red)">
    <rect x="21" y="16" width="17" height="2" fill="#c5162f" opacity="0.95"/>
    <rect x="21" y="16" width="2" height="17" fill="#c5162f" opacity="0.95"/>
    <rect x="642" y="16" width="17" height="2" fill="#c5162f" opacity="0.95"/>
    <rect x="657" y="16" width="2" height="17" fill="#c5162f" opacity="0.95"/>
    <rect x="21" y="78" width="17" height="2" fill="#c5162f" opacity="0.95"/>
    <rect x="21" y="63" width="2" height="17" fill="#c5162f" opacity="0.95"/>
    <rect x="642" y="78" width="17" height="2" fill="#c5162f" opacity="0.95"/>
    <rect x="657" y="63" width="2" height="17" fill="#c5162f" opacity="0.95"/>
  </g>

  <rect x="32" y="42" width="62" height="2" fill="#c5162f" opacity="0.22"/>
  <rect x="586" y="51" width="62" height="2" fill="#c8a000" opacity="0.18"/>
  <rect x="102" y="38" width="8" height="6" fill="#c5162f" opacity="0.08"/>
  <rect x="574" y="48" width="8" height="5" fill="#c8a000" opacity="0.08"/>

  <text x="32" y="28" font-family="'Courier New', monospace" font-size="8" fill="#b58a16" opacity="0.72" letter-spacing="1.4">SYS://SECURE-LINK</text>
  <text x="648" y="28" text-anchor="end" font-family="'Courier New', monospace" font-size="8" fill="#cf3146" opacity="0.72" letter-spacing="1.4">NODE://TOKYO-00</text>
  <text x="32" y="76" font-family="'Courier New', monospace" font-size="7" fill="#812229" opacity="0.72" letter-spacing="1.8">信頼  保全  監視</text>
  <text x="648" y="76" text-anchor="end" font-family="'Courier New', monospace" font-size="7" fill="#7c6363" opacity="0.72" letter-spacing="1.8">BLACK ICE READY</text>

  <text x="338" y="51" text-anchor="middle" dominant-baseline="middle" font-family="Impact, 'Arial Black', sans-serif" font-size="32" font-weight="900" letter-spacing="8" fill="#ff2745" opacity="0.42">ARASAKA</text>
  <text x="342" y="53" text-anchor="middle" dominant-baseline="middle" font-family="Impact, 'Arial Black', sans-serif" font-size="32" font-weight="900" letter-spacing="8" fill="#cdb7ac" opacity="0.92" clip-path="url(#glitch-top)">ARASAKA</text>
  <text x="339" y="53" text-anchor="middle" dominant-baseline="middle" font-family="Impact, 'Arial Black', sans-serif" font-size="32" font-weight="900" letter-spacing="8" fill="#d1bdaf" opacity="0.72" clip-path="url(#glitch-mid)">ARASAKA</text>
  <text x="340" y="52" text-anchor="middle" dominant-baseline="middle" font-family="Impact, 'Arial Black', sans-serif" font-size="32" font-weight="900" letter-spacing="8" fill="#d6c1b4" filter="url(#glow-soft)">ARASAKA</text>

  <text x="111" y="52" text-anchor="middle" dominant-baseline="middle" font-family="'Courier New', monospace" font-size="8" fill="#8e3038" letter-spacing="2.8">CORPORATION</text>
  <text x="569" y="52" text-anchor="middle" dominant-baseline="middle" font-family="'Courier New', monospace" font-size="8" fill="#8e3038" letter-spacing="2.8">東京  2077</text>

  <line x1="192" y1="58" x2="488" y2="58" stroke="#c5162f" stroke-width="2.1" opacity="0.42" filter="url(#glow-soft)"/>
  <line x1="208" y1="61" x2="472" y2="61" stroke="#c8a000" stroke-width="0.8" opacity="0.3"/>

  <polygon points="340,21 346,27 340,33 334,27" fill="#c5162f" opacity="0.9" filter="url(#glow-red)"/>
  <polygon points="340,69 346,75 340,81 334,75" fill="#c8a000" opacity="0.7" filter="url(#glow-red)"/>
</svg>
