<svg id="arasaka-footer" width="100%" viewBox="0 0 680 24" xmlns="http://www.w3.org/2000/svg">
  <defs>
    <linearGradient id="footer-bg" x1="0%" y1="0%" x2="100%" y2="0%">
      <stop offset="0%" stop-color="#080404"/>
      <stop offset="50%" stop-color="#0c0607"/>
      <stop offset="100%" stop-color="#080404"/>
    </linearGradient>
    <filter id="footer-glow" x="-50%" y="-50%" width="200%" height="200%">
      <feGaussianBlur stdDeviation="1.7" result="blur"/>
      <feMerge>
        <feMergeNode in="blur"/>
        <feMergeNode in="SourceGraphic"/>
      </feMerge>
    </filter>
  </defs>

  <rect width="680" height="24" fill="url(#footer-bg)"/>
  <line x1="0" y1="1" x2="680" y2="1" stroke="#3a1214" stroke-width="0.8"/>
  <line x1="0" y1="8" x2="680" y2="8" stroke="#120708" stroke-width="0.8" opacity="0.7"/>
  <line x1="0" y1="16" x2="680" y2="16" stroke="#120708" stroke-width="0.8" opacity="0.7"/>

  <g opacity="0.12">
    <line x1="92" y1="1" x2="92" y2="23" stroke="#c5162f"/>
    <line x1="588" y1="1" x2="588" y2="23" stroke="#c5162f"/>
  </g>

  <g filter="url(#footer-glow)">
    <rect x="10" y="5" width="2" height="14" fill="#c5162f"/>
    <rect x="668" y="5" width="2" height="14" fill="#c5162f"/>
    <circle cx="28" cy="12" r="2" fill="#c8a000" opacity="0.75"/>
    <circle cx="652" cy="12" r="2" fill="#c8a000" opacity="0.75"/>
  </g>

  <line x1="44" y1="12" x2="182" y2="12" stroke="#2f0e11" stroke-width="0.8"/>
  <line x1="498" y1="12" x2="636" y2="12" stroke="#2f0e11" stroke-width="0.8"/>
  <line x1="52" y1="12" x2="168" y2="12" stroke="#52151c" stroke-width="0.4" opacity="0.45"/>
  <line x1="512" y1="12" x2="628" y2="12" stroke="#52151c" stroke-width="0.4" opacity="0.45"/>

  <text x="54" y="14" font-family="'Courier New', monospace" font-size="5.5" fill="#695153" letter-spacing="1.8">NET://MONITORED</text>
  <text x="626" y="14" text-anchor="end" font-family="'Courier New', monospace" font-size="5.5" fill="#695153" letter-spacing="1.8">TOKYO-00  SECURE</text>

  <rect x="218" y="6" width="244" height="12" rx="1" fill="#0f0708" stroke="#251012" stroke-width="0.7"/>
  <text x="340" y="14" text-anchor="middle" font-family="'Courier New', monospace" font-size="5.8" fill="#7b6162" letter-spacing="2.4">ARASAKA AUTOMATED SYSTEMS // v1</text>
</svg>
